# xmcd CD database file
#
# Track frame offsets:
#	150
#	13358
#	25967
#	40451
#	51988
#	69365
#	83263
#	94316
#	106345
#	120488
#	140397
#	153905
#	163467
#	176779
#	189680
#	206640
#	222438
#	232396
#	245620
#	261648
#
# Disc length: 3670 seconds
#
# Revision: 0
# Processed by: cddbd v1.5.1PL0 Copyright (c) Steve Scherf et al.
# Submitted via: CDex 1.51
#
DISCID=320e5414
DTITLE=Chrystian and Ralf - CONVITES PARA OUVIR
DYEAR=1900
DGENRE=Country
TTITLE0=Chrystian and Ralf - Quebradas Da Noite
TTITLE1=Chrystian and Ralf - Casa Da Esquina
TTITLE2=Chrystian and Ralf - Amargurado
TTITLE3=Chrystian and Ralf - Gemidos Abafados
TTITLE4=Chrystian and Ralf - Anoche Estuve Llorando
TTITLE5=Chrystian /‡Ralf - Camisa Manchada
TTITLE6=Chrystian and Ralf - Cachorro De Madame
TTITLE7=Chrystian and Ralf - Pranto de Saudade
TTITLE8=Chrystian and Ralf - Noite De Tortura
TTITLE9=Chrystian and Ralf - Piscina
TTITLE10=Chrystian and Ralf - Flecha Certeira
TTITLE11=Chrystian and Ralf - Louca Paix„o
TTITLE12=Chrystian and Ralf - Desencontro
TTITLE13=Chrystian and Ralf - Dona De Casa
TTITLE14=Chrystian and Ralf - Poeira
TTITLE15=Chrystian and Ralf - Esta Noite Eu Queria Que O Mun
TTITLE16=Chrystian and Ralf - Vestido Colado
TTITLE17=Chrystian and Ralf - Medicina Legal
TTITLE18=Chrystian and Ralf - A Deserdada
TTITLE19=Chrystian and Ralf - Berrante De Madalena
EXTD=
EXTT0=
EXTT1=
EXTT2=
EXTT3=
EXTT4=
EXTT5=
EXTT6=
EXTT7=
EXTT8=
EXTT9=
EXTT10=
EXTT11=
EXTT12=
EXTT13=
EXTT14=
EXTT15=
EXTT16=
EXTT17=
EXTT18=
EXTT19=
PLAYORDER=
